# xmcd
#
# Track frame offsets: 
#        150
#        18643
#        37918
#        58525
#        74803
#        94164
#        112164
#        128702
#        147852
#        165760
#
# Disc length: 2491 seconds
#
# Revision: 0
# Processed by: cddbd v1.5.2PL0 Copyright (c) Steve Scherf et al.
# Submitted via: ExactAudioCopy v0.95b3
#
DISCID=8809b90a
DTITLE=The Guess Who  - Liberty
DYEAR=1900
DGENRE=
TTITLE0=Sweet Liberty
TTITLE1=Love's All That Matters Tonight
TTITLE2=Lonely One
TTITLE3=Haunted Heart
TTITLE4=Anything For Love
TTITLE5=Rock N'roll Classic
TTITLE6=The Razors Edge
TTITLE7=I Feel Your Pain
TTITLE8=Still Feels Like Love
TTITLE9=Amy
EXTD=
EXTT0=
EXTT1=
EXTT2=
EXTT3=
EXTT4=
EXTT5=
EXTT6=
EXTT7=
EXTT8=
EXTT9=
PLAYORDER=
